<?xml version="1.0" standalone="no"?>
<!DOCTYPE svg PUBLIC "-//W3C//DTD SVG 20010904//EN"
 "http://www.w3.org/TR/2001/REC-SVG-20010904/DTD/svg10.dtd">
<svg version="1.0" xmlns="http://www.w3.org/2000/svg"
 width="321.000000pt" height="321.000000pt" viewBox="0 0 321.000000 321.000000"
 preserveAspectRatio="xMidYMid meet">
<metadata>
Created by potrace 1.14, written by Peter Selinger 2001-2017
</metadata>
<g transform="translate(0.000000,321.000000) scale(0.100000,-0.100000)"
fill="#000000" stroke="none">
<path d="M1130 2549 c-458 -6 -494 -9 -616 -52 -142 -51 -264 -150 -308 -249
-36 -82 -49 -175 -35 -255 14 -82 57 -176 102 -223 l34 -35 -52 -46 c-142
-131 -177 -364 -83 -566 32 -69 149 -183 228 -221 64 -32 215 -76 319 -93 29
-6 295 -8 592 -7 l538 3 23 23 23 23 3 519 3 520 99 0 100 0 0 -517 c1 -392 4
-522 13 -534 28 -37 49 -39 392 -39 357 0 390 4 414 48 15 29 15 1635 0 1664
-26 48 -35 48 -711 46 -348 -1 -833 -5 -1078 -9z m1700 -869 l0 -800 -325 0
-325 0 0 545 0 545 -174 0 c-96 0 -181 -3 -190 -6 -14 -6 -16 -63 -16 -545 l0
-539 -490 0 c-269 0 -490 4 -490 8 0 5 -42 12 -92 15 -338 23 -546 214 -525
482 11 144 77 246 199 310 l56 29 -43 28 c-58 38 -112 100 -139 157 -17 38
-21 65 -21 151 0 90 3 112 23 153 51 103 174 187 333 229 78 20 114 22 534 28
248 3 728 7 1068 8 l617 2 0 -800z"/>
<path d="M884 2056 c-60 -26 -71 -124 -19 -175 25 -26 28 -26 195 -29 l170 -3
0 110 0 111 -157 0 c-109 -1 -167 -5 -189 -14z m266 -96 l0 -30 -104 0 c-57 0
-111 3 -120 6 -16 6 -22 35 -9 47 3 4 57 7 120 7 l113 0 0 -30z"/>
<path d="M840 1512 c-71 -35 -75 -145 -7 -196 26 -19 44 -21 209 -24 99 -2
184 0 189 5 4 4 5 59 2 121 l-6 112 -176 0 c-148 0 -182 -3 -211 -18z m310
-97 l0 -36 -137 3 c-137 3 -138 3 -141 27 -2 13 2 28 10 32 7 5 70 9 141 9
l127 0 0 -35z"/>
</g>
</svg>
