<?xml version="1.0" standalone="no"?>
<!DOCTYPE svg PUBLIC "-//W3C//DTD SVG 20010904//EN"
 "http://www.w3.org/TR/2001/REC-SVG-20010904/DTD/svg10.dtd">
<svg version="1.0" xmlns="http://www.w3.org/2000/svg"
 width="463.000000pt" height="463.000000pt" viewBox="0 0 463.000000 463.000000"
 preserveAspectRatio="xMidYMid meet">
<metadata>
Created by potrace 1.14, written by Peter Selinger 2001-2017
</metadata>
<g transform="translate(0.000000,463.000000) scale(0.100000,-0.100000)"
fill="#000000" stroke="none">
<path d="M95 3576 c-16 -7 -41 -26 -55 -41 l-25 -27 -3 -1166 c-3 -1280 -5
-1222 56 -1267 26 -19 43 -20 458 -20 482 0 469 -2 504 70 19 39 20 61 20 398
l0 357 220 0 220 0 0 -355 c0 -386 3 -410 56 -449 39 -28 202 -37 599 -34 321
3 353 5 381 22 58 35 59 36 62 339 3 270 7 302 33 244 5 -12 15 -31 21 -42 7
-10 33 -52 58 -91 122 -196 154 -243 178 -255 36 -20 448 -20 484 -1 22 12
130 174 151 226 4 11 12 23 16 26 4 3 22 31 39 63 17 31 43 74 56 94 l25 36 3
-289 c3 -319 3 -316 69 -353 35 -20 51 -21 410 -21 356 0 375 1 415 21 80 38
75 -47 72 1269 -3 1296 3 1193 -74 1230 -38 19 -62 20 -371 20 -182 0 -344 -3
-362 -6 -17 -4 -42 -17 -55 -30 -24 -25 -164 -252 -164 -268 0 -5 -4 -12 -9
-15 -5 -3 -22 -28 -38 -56 -17 -27 -34 -57 -40 -66 -5 -9 -22 -38 -38 -65 -15
-27 -35 -61 -45 -76 -32 -49 -72 -121 -72 -128 0 -5 -4 -10 -8 -12 -5 -1 -22
-28 -39 -58 -17 -30 -60 -104 -97 -164 -36 -60 -66 -112 -66 -117 0 -16 -20
-9 -27 9 -4 9 -24 43 -45 74 -21 31 -38 59 -38 62 0 2 -44 76 -98 163 -88 142
-161 262 -195 318 -7 11 -21 33 -32 50 -23 34 -40 62 -55 90 -6 11 -18 32 -28
47 -9 14 -38 62 -64 105 -60 102 -99 141 -152 148 -23 4 -220 5 -438 3 l-398
-3 -37 -38 -38 -37 -3 -365 -3 -365 -219 0 -219 0 -3 363 c-3 344 -4 363 -23
389 -41 54 -29 53 -480 55 -336 2 -426 0 -450 -11z"/>
</g>
</svg>
